<svg xmlns="http://www.w3.org/2000/svg" xmlns:xlink="http://www.w3.org/1999/xlink" width="2000" zoomAndPan="magnify" viewBox="0 0 1500 1499.999933" height="2000" preserveAspectRatio="xMidYMid meet" version="1.0"><defs><g/><clipPath id="481359cf06"><path d="M 963.222656 598.101562 L 1115.121094 598.101562 L 1115.121094 750 L 963.222656 750 Z M 963.222656 598.101562 " clip-rule="nonzero"/></clipPath><clipPath id="5c31c207d1"><path d="M 1039.171875 598.101562 C 997.226562 598.101562 963.222656 632.105469 963.222656 674.050781 C 963.222656 715.996094 997.226562 750 1039.171875 750 C 1081.117188 750 1115.121094 715.996094 1115.121094 674.050781 C 1115.121094 632.105469 1081.117188 598.101562 1039.171875 598.101562 Z M 1039.171875 598.101562 " clip-rule="nonzero"/></clipPath></defs><rect x="-150" width="1800" fill="#ffffff" y="-149.999993" height="1799.99992" fill-opacity="1"/><rect x="-150" width="1800" fill="#101e40" y="-149.999993" height="1799.99992" fill-opacity="1"/><g fill="#fff6ea" fill-opacity="1"><g transform="translate(353.050345, 1109.922786)"><g><path d="M 318.296875 16.1875 C 267.222656 16.1875 219.390625 4.675781 174.796875 -18.34375 C 154.648438 -28.414062 137.742188 -40.285156 124.078125 -53.953125 C 114.015625 -37.398438 101.425781 -22.648438 86.3125 -9.703125 C 73.363281 -0.359375 66.171875 4.671875 64.734375 5.390625 L 37.765625 5.390625 L 37.765625 -199.609375 L 80.921875 -199.609375 C 91.710938 -164.359375 106.816406 -132.707031 126.234375 -104.65625 C 170.117188 -42.082031 226.945312 -10.796875 296.71875 -10.796875 C 337.71875 -10.796875 370.445312 -23.019531 394.90625 -47.46875 C 419.363281 -71.925781 431.59375 -104.65625 431.59375 -145.65625 C 431.59375 -169.394531 424.578125 -190.613281 410.546875 -209.3125 C 396.523438 -228.019531 379.082031 -244.566406 358.21875 -258.953125 C 337.363281 -273.335938 308.234375 -291.320312 270.828125 -312.90625 C 223.347656 -339.519531 184.863281 -363.613281 155.375 -385.1875 C 125.882812 -406.769531 100.707031 -433.925781 79.84375 -466.65625 C 58.976562 -499.382812 48.546875 -538.050781 48.546875 -582.65625 C 48.546875 -617.894531 58.4375 -649.722656 78.21875 -678.140625 C 98 -706.554688 127.671875 -729.210938 167.234375 -746.109375 C 206.804688 -763.015625 255.363281 -771.46875 312.90625 -771.46875 C 354.625 -771.46875 396.34375 -759.601562 438.0625 -735.875 C 453.894531 -727.238281 469.722656 -715.726562 485.546875 -701.34375 C 497.773438 -720.039062 510.363281 -734.785156 523.3125 -745.578125 C 536.257812 -754.929688 543.453125 -759.96875 544.890625 -760.6875 L 571.859375 -760.6875 L 571.859375 -555.671875 L 528.703125 -555.671875 C 519.347656 -590.203125 505.320312 -621.492188 486.625 -649.546875 C 469.351562 -676.878906 447.953125 -699.535156 422.421875 -717.515625 C 396.890625 -735.503906 367.578125 -744.5 334.484375 -744.5 C 306.429688 -744.5 282.332031 -733.347656 262.1875 -711.046875 C 242.050781 -688.753906 231.984375 -660.34375 231.984375 -625.8125 C 231.984375 -599.195312 239.710938 -575.28125 255.171875 -554.0625 C 270.640625 -532.84375 289.703125 -514.316406 312.359375 -498.484375 C 335.023438 -482.660156 365.78125 -463.597656 404.625 -441.296875 C 449.9375 -415.410156 486.617188 -392.394531 514.671875 -372.25 C 542.722656 -352.101562 566.457031 -327.101562 585.875 -297.25 C 605.300781 -267.40625 615.015625 -233.0625 615.015625 -194.21875 C 615.015625 -155.375 603.863281 -119.945312 581.5625 -87.9375 C 559.269531 -55.925781 525.820312 -30.566406 481.21875 -11.859375 C 436.625 6.835938 382.316406 16.1875 318.296875 16.1875 Z M 318.296875 16.1875 "/></g></g></g><g clip-path="url(#481359cf06)"><g clip-path="url(#5c31c207d1)"><path fill="#aeff01" d="M 963.222656 598.101562 L 1115.121094 598.101562 L 1115.121094 750 L 963.222656 750 Z M 963.222656 598.101562 " fill-opacity="1" fill-rule="nonzero"/></g></g></svg>